<svg viewBox="0 0 32 32" fill="none" xmlns="http://www.w3.org/2000/svg" role="img" aria-label="Yuse logo option A  literal slingshot">
  <defs>
    <linearGradient id="yuse-a-accent" x1="0%" y1="0%" x2="100%" y2="0%">
      <stop offset="0%" stop-color="#FBBF24"/>
      <stop offset="50%" stop-color="#F59E0B"/>
      <stop offset="100%" stop-color="#FBBF24"/>
    </linearGradient>
  </defs>
  <!-- Y-fork frame -->
  <path d="M16 29.5 C14.8 29.5 14 28.8 14 27.5 V17.2 L5.2 4.2 C4.2 2.6 5.4 1.2 7 2 L13.8 14.2 V17.2 H14 V27.5 C14 28.8 13.2 29.5 12 29.5 H16 Z" fill="currentColor"/>
  <path d="M16 29.5 C17.2 29.5 18 28.8 18 27.5 V17.2 L26.8 4.2 C27.8 2.6 26.6 1.2 25 2 L18.2 14.2 V17.2 H18 V27.5 C18 28.8 18.8 29.5 20 29.5 H16 Z" fill="currentColor"/>
  <!-- Wood grain -->
  <path d="M7.5 6.5 L6.8 10.5 M10 8 L9.2 12 M24.5 6.5 L25.2 10.5 M22 8 L22.8 12" stroke="currentColor" stroke-width="0.7" stroke-linecap="round" opacity="0.28"/>
  <!-- Ferrules -->
  <circle cx="6.5" cy="3.2" r="2.2" fill="currentColor"/>
  <circle cx="25.5" cy="3.2" r="2.2" fill="currentColor"/>
  <!-- Elastic band + pouch -->
  <path d="M7 4.5 C7 11 10.5 15.5 16 16.8 C21.5 15.5 25 11 25 4.5 L22.5 5.5 C22.5 10.5 19.5 13.5 16 14.5 C12.5 13.5 9.5 10.5 9.5 5.5 Z" fill="url(#yuse-a-accent)"/>
  <path d="M11.5 15.8 Q16 21 20.5 15.8 Q16 18.2 11.5 15.8 Z" fill="url(#yuse-a-accent)"/>
  <!-- Stone -->
  <circle cx="16" cy="16.2" r="2" fill="currentColor" opacity="0.85"/>
</svg>
