<svg viewBox="0 0 32 32" fill="none" xmlns="http://www.w3.org/2000/svg" role="img" aria-label="Yuse logo option C  mascot slingshot">
  <defs>
    <linearGradient id="yuse-c-accent" x1="0%" y1="0%" x2="100%" y2="0%">
      <stop offset="0%" stop-color="#FBBF24"/>
      <stop offset="50%" stop-color="#F59E0B"/>
      <stop offset="100%" stop-color="#FBBF24"/>
    </linearGradient>
  </defs>
  <!-- Rounded Y body  orange forks -->
  <path d="M6.5 5.5 C5.5 4 6.8 2.5 8.2 3.5 L14 12.5 V16.5 H18 V12.5 L23.8 3.5 C25.2 2.5 26.5 4 25.5 5.5 L20 13.5 V18.5 C20 20 19 21 17.5 21 H14.5 C13 21 12 20 12 18.5 V13.5 Z" fill="url(#yuse-c-accent)"/>
  <!-- Handle stem -->
  <path d="M13 18.5 V27.5 C13 28.8 13.8 29.5 15 29.5 H17 C18.2 29.5 19 28.8 19 27.5 V18.5 H13 Z" fill="currentColor"/>
  <!-- Face -->
  <circle cx="13.5" cy="22.5" r="1.3" fill="url(#yuse-c-accent)"/>
  <circle cx="18.5" cy="22.5" r="1.3" fill="url(#yuse-c-accent)"/>
  <path d="M13.8 24.8 Q16 26.5 18.2 24.8" stroke="url(#yuse-c-accent)" stroke-width="1.4" stroke-linecap="round" fill="none"/>
  <!-- Briefcase strap + case -->
  <path d="M24 6.5 C25.5 7 26 9 25.5 11 L24.5 14" stroke="currentColor" stroke-width="1.8" stroke-linecap="round"/>
  <rect x="22" y="13.5" width="6.5" height="5" rx="1.2" fill="url(#yuse-c-accent)"/>
  <rect x="24" y="12.8" width="2.5" height="1.4" rx="0.5" fill="url(#yuse-c-accent)"/>
  <rect x="24.5" y="15.5" width="1.5" height="1.5" rx="0.3" fill="currentColor" opacity="0.5"/>
</svg>
